<svg width="15" height="15" viewBox="0 0 15 15" fill="none" xmlns="http://www.w3.org/2000/svg">
<path d="M10.975 13.125C10.875 13.1254 10.7764 13.1018 10.6875 13.0562L7.49997 11.3875L4.31247 13.0562C4.20897 13.1107 4.09227 13.135 3.97565 13.1264C3.85902 13.1178 3.74715 13.0766 3.65274 13.0076C3.55834 12.9386 3.48519 12.8445 3.44161 12.736C3.39803 12.6275 3.38577 12.5089 3.40622 12.3937L4.03122 8.875L1.45622 6.375C1.37588 6.29483 1.31889 6.19429 1.29137 6.08418C1.26384 5.97407 1.26681 5.85854 1.29997 5.75C1.3362 5.63892 1.40283 5.54022 1.49232 5.4651C1.5818 5.38997 1.69055 5.34144 1.80622 5.325L5.36872 4.80625L6.93747 1.6C6.98865 1.49433 7.06856 1.40521 7.16804 1.34286C7.26753 1.2805 7.38256 1.24743 7.49997 1.24743C7.61738 1.24743 7.73242 1.2805 7.8319 1.34286C7.93139 1.40521 8.0113 1.49433 8.06247 1.6L9.64997 4.8L13.2125 5.31875C13.3281 5.33519 13.4369 5.38372 13.5264 5.45885C13.6159 5.53397 13.6825 5.63267 13.7187 5.74375C13.7519 5.85229 13.7549 5.96782 13.7273 6.07793C13.6998 6.18804 13.6428 6.28858 13.5625 6.36875L10.9875 8.86875L11.6125 12.3875C11.6348 12.5047 11.6231 12.6258 11.5788 12.7365C11.5345 12.8473 11.4594 12.943 11.3625 13.0125C11.2493 13.0918 11.113 13.1314 10.975 13.125ZM7.49997 10.0625C7.60016 10.06 7.69927 10.0837 7.78747 10.1312L10.1437 11.3812L9.69372 8.75C9.67626 8.64953 9.68365 8.54631 9.71525 8.44936C9.74684 8.3524 9.80168 8.26464 9.87497 8.19375L11.75 6.3625L9.12497 5.975C9.02871 5.95562 8.93837 5.91383 8.86128 5.85302C8.78418 5.79221 8.7225 5.71409 8.68122 5.625L7.49997 3.28125L6.31872 5.625C6.2735 5.71481 6.20728 5.79239 6.12568 5.85115C6.04407 5.9099 5.94949 5.9481 5.84997 5.9625L3.22497 6.35L5.09997 8.18125C5.17327 8.25214 5.22811 8.3399 5.2597 8.43686C5.29129 8.53381 5.29868 8.63703 5.28122 8.7375L4.83122 11.3375L7.18747 10.0875C7.28731 10.0504 7.3955 10.0417 7.49997 10.0625Z" fill="#828282"/>
</svg>
