<svg width="15" height="15" viewBox="0 0 15 15" fill="none" xmlns="http://www.w3.org/2000/svg">
<path d="M7.5 1.25C6.26387 1.25 5.0555 1.61656 4.02769 2.30331C2.99988 2.99007 2.1988 3.96619 1.72576 5.10823C1.25271 6.25027 1.12894 7.50693 1.37009 8.71931C1.61125 9.9317 2.20651 11.0453 3.08059 11.9194C3.95466 12.7935 5.06831 13.3888 6.28069 13.6299C7.49307 13.8711 8.74974 13.7473 9.89178 13.2742C11.0338 12.8012 12.0099 12.0001 12.6967 10.9723C13.3834 9.94451 13.75 8.73613 13.75 7.5C13.75 6.67924 13.5883 5.86651 13.2743 5.10823C12.9602 4.34994 12.4998 3.66095 11.9194 3.08058C11.3391 2.50022 10.6501 2.03984 9.89178 1.72575C9.13349 1.41166 8.32076 1.25 7.5 1.25ZM7.5 12.5C6.5111 12.5 5.5444 12.2068 4.72215 11.6573C3.89991 11.1079 3.25904 10.327 2.88061 9.41342C2.50217 8.49979 2.40315 7.49445 2.59608 6.52455C2.789 5.55464 3.26521 4.66373 3.96447 3.96447C4.66373 3.2652 5.55465 2.789 6.52455 2.59607C7.49446 2.40315 8.49979 2.50216 9.41342 2.8806C10.3271 3.25904 11.1079 3.8999 11.6574 4.72215C12.2068 5.54439 12.5 6.51109 12.5 7.5C12.5 8.82608 11.9732 10.0979 11.0355 11.0355C10.0979 11.9732 8.82609 12.5 7.5 12.5Z" fill="#828282"/>
<path d="M10 6.875H8.125V5C8.125 4.83424 8.05915 4.67527 7.94194 4.55806C7.82473 4.44085 7.66576 4.375 7.5 4.375C7.33424 4.375 7.17527 4.44085 7.05806 4.55806C6.94085 4.67527 6.875 4.83424 6.875 5V7.5C6.875 7.66576 6.94085 7.82473 7.05806 7.94194C7.17527 8.05915 7.33424 8.125 7.5 8.125H10C10.1658 8.125 10.3247 8.05915 10.4419 7.94194C10.5592 7.82473 10.625 7.66576 10.625 7.5C10.625 7.33424 10.5592 7.17527 10.4419 7.05806C10.3247 6.94085 10.1658 6.875 10 6.875Z" fill="#828282"/>
</svg>
